<?xml version="1.0" encoding="UTF-8" standalone="no"?>
<!-- Created with Inkscape (http://www.inkscape.org/) -->

<svg
   xmlns:dc="http://purl.org/dc/elements/1.1/"
   xmlns:cc="http://creativecommons.org/ns#"
   xmlns:rdf="http://www.w3.org/1999/02/22-rdf-syntax-ns#"
   xmlns:svg="http://www.w3.org/2000/svg"
   xmlns="http://www.w3.org/2000/svg"
   xmlns:sodipodi="http://sodipodi.sourceforge.net/DTD/sodipodi-0.dtd"
   xmlns:inkscape="http://www.inkscape.org/namespaces/inkscape"
   width="200"
   height="200"
   id="svg4886"
   version="1.1"
   inkscape:version="0.48+devel r"
   sodipodi:docname="shapes.svg">
  <defs
     id="defs4888" />
  <sodipodi:namedview
     id="base"
     pagecolor="#ffffff"
     bordercolor="#666666"
     borderopacity="1.0"
     inkscape:pageopacity="0.0"
     inkscape:pageshadow="2"
     inkscape:zoom="0.98994949"
     inkscape:cx="65.837676"
     inkscape:cy="134.95857"
     inkscape:document-units="px"
     inkscape:current-layer="layer1"
     showgrid="false"
     inkscape:window-width="1200"
     inkscape:window-height="675"
     inkscape:window-x="252"
     inkscape:window-y="48"
     inkscape:window-maximized="0" />
  <metadata
     id="metadata4891">
    <rdf:RDF>
      <cc:Work
         rdf:about="">
        <dc:format>image/svg+xml</dc:format>
        <dc:type
           rdf:resource="http://purl.org/dc/dcmitype/StillImage" />
        <dc:title></dc:title>
      </cc:Work>
    </rdf:RDF>
  </metadata>
  <g
     inkscape:label="Layer 1"
     inkscape:groupmode="layer"
     id="layer1"
     transform="translate(0,-852.36218)">
    <path
       style="fill:#336699;stroke:#003366;stroke-width:3.9000001;stroke-linecap:round;stroke-linejoin:miter;stroke-miterlimit:4;stroke-opacity:1;stroke-dasharray:none"
       d="m 57.684209,924.16392 c 25.426142,-6.89484 60.740151,-66.53376 87.485551,-33.96685 -36.30157,-2.30378 -11.48813,35.92335 7.4604,33.64535"
       id="path4032"
       inkscape:connector-curvature="0"
       sodipodi:nodetypes="ccc" />
    <g
       id="g4122"
       transform="matrix(0.21132249,0,0,0.19803155,-42.824498,938.29884)"
       style="stroke-width:19.064462;stroke-miterlimit:4;stroke-dasharray:none">
      <path
         sodipodi:nodetypes="cccccccc"
         inkscape:connector-curvature="0"
         id="path4060"
         d="m 545.48238,412.93563 c 5.97531,-45.13006 -42.34655,-65.54106 -71.32433,-88.85565 -43.76073,-30.06008 -58.85834,-82.33397 -60.39891,-132.79328 -2.49639,-45.40432 -26.65837,-84.32388 -45.28162,-124.283693 30.60421,-8.273533 85.78596,17.887696 119.34832,38.373833 46.94084,31.67009 87.50505,79.86044 98.05726,136.62658 4.20864,48.58527 -8.53983,97.03883 -30.9093,139.9704 -15.53366,34.11238 -2.60491,69.86442 9.11396,102.64302"
         style="fill:#5dc629;fill-opacity:1;stroke:#015a01;stroke-width:19.064462;stroke-linecap:round;stroke-linejoin:miter;stroke-miterlimit:4;stroke-opacity:1;stroke-dasharray:none" />
      <path
         inkscape:connector-curvature="0"
         id="path4074"
         d="M 540.43161,312.93052 C 532.78801,231.42002 488.54505,155.845 425.27422,104.8391"
         style="fill:none;stroke:#015a01;stroke-width:19.064462;stroke-linecap:round;stroke-linejoin:miter;stroke-miterlimit:4;stroke-opacity:1;stroke-dasharray:none" />
      <path
         inkscape:connector-curvature="0"
         id="path4076"
         d="m 511.13719,262.42289 c -10.65178,-8.39795 -24.88671,-12.8822 -38.3858,-10.10152"
         style="fill:none;stroke:#015a01;stroke-width:19.064462;stroke-linecap:round;stroke-linejoin:miter;stroke-miterlimit:4;stroke-opacity:1;stroke-dasharray:none" />
      <path
         sodipodi:nodetypes="cc"
         inkscape:connector-curvature="0"
         id="path4078"
         d="m 473.76154,184.64115 c 0,0 -8.41795,-7.5229 -16.16244,-6.06092"
         style="fill:none;stroke:#015a01;stroke-width:19.064462;stroke-linecap:round;stroke-linejoin:miter;stroke-miterlimit:4;stroke-opacity:1;stroke-dasharray:none" />
      <path
         sodipodi:nodetypes="cc"
         inkscape:connector-curvature="0"
         id="path4080"
         d="m 526.28948,217.97618 c 0.37189,-17.81905 5.64123,-25.46517 20.20305,-35.35534"
         style="fill:none;stroke:#015a01;stroke-width:19.064462;stroke-linecap:round;stroke-linejoin:miter;stroke-miterlimit:4;stroke-opacity:1;stroke-dasharray:none" />
    </g>
    <g
       id="g4198"
       transform="matrix(0.15764937,0,0,0.15764937,127.738,903.93719)"
       style="stroke-width:24.73844329;stroke-miterlimit:4;stroke-dasharray:none">
      <path
         sodipodi:nodetypes="ccccccccccccccc"
         inkscape:connector-curvature="0"
         id="path4181"
         d="m 281.63601,727.13754 c 42.13987,-55.8705 40.51983,-139.92033 -4.20267,-193.86962 -24.48239,-49.98859 -132.47101,-135.05836 -86.52254,-183.03605 8.10247,-11.44247 44.81357,0.32355 20.43374,-14.90172 -26.72872,-10.0125 -57.33848,-9.12543 -84.34537,-0.55552 -32.875076,16.82204 -44.916249,55.37935 -47.978908,89.65828 0.736535,18.84866 5.793157,37.67083 13.732769,54.67893 -17.808374,-17.21248 -47.510075,-12.28689 -66.058896,1.95566 -23.843779,12.0241 17.929648,15.18389 19.70189,32.27658 9.685422,23.65508 -6.949998,47.28387 -18.530574,66.93149 -12.498578,20.13195 -28.64893556,40.89925 -25.5350097,66.15467 0.2198608,38.66176 10.3342067,82.88737 43.9004507,106.07124 31.289298,18.03115 64.301178,39.12528 102.132668,35.69549 48.14709,4.98416 92.34395,-22.0255 125.86673,-54.03389 2.49631,-2.31239 4.96354,-4.65608 7.40572,-7.02554 z"
         style="fill:#f44800;stroke:#980101;stroke-width:24.73844329;stroke-linecap:butt;stroke-linejoin:miter;stroke-miterlimit:4;stroke-opacity:1;stroke-dasharray:none" />
      <path
         sodipodi:nodetypes="cccccc"
         inkscape:connector-curvature="0"
         id="path4183"
         d="m 185.61276,783.47386 c 52.04747,-22.28696 80.22105,-80.86756 44.73553,-137.13921 -11.94108,23.01736 -18.73675,31.50173 -64.85535,28.27105 36.68732,-36.9458 42.16238,-88.8591 -13.72455,-136.52162 -2.48441,106.70115 -86.149955,92.84449 -79.936391,176.1446 10.131085,64.02006 66.871461,86.89425 113.780761,69.24518 z"
         style="fill:#fdca01;stroke:#ffff00;stroke-width:24.73844329;stroke-linecap:butt;stroke-linejoin:miter;stroke-miterlimit:4;stroke-opacity:1;stroke-dasharray:none" />
    </g>
  </g>
</svg>
